name C:\Users\u0101727\Documents\MyRepositories\upper-imu-dc\Results\main_mocap_tracking\Case_2\kinematics.mot
datacolumns 15
datarows 37
range 1.00000000 1.36000000
endheader 
time	ground_thorax_rot_x	ground_thorax_rot_y	ground_thorax_rot_z	clav_prot	clav_elev	scapula_abduction	scapula_elevation	scapula_upward_rot	scapula_winging	plane_elv	shoulder_elv	axial_rot	elbow_flexion	pro_sup	
          1.00000000	          1.76490901	         -6.00814663	         -9.98328320	        -20.60530215	         -7.61790958	         -7.97707314	         -6.62578271	         13.61313440	          6.32838811	         35.70068841	         27.36491671	        -12.29749757	          0.00899643	         34.31812434	
          1.01000000	          1.74127897	         -6.02944858	        -10.00100385	        -20.59587376	         -7.61934727	         -7.83021914	         -6.68305768	         13.83611387	          6.27686908	         36.96491244	         28.03580317	        -14.18151327	          0.00720671	         34.31833160	
          1.02000000	          1.71785712	         -6.05114770	        -10.02069183	        -20.58280502	         -7.60944619	         -7.66666383	         -6.73641214	         14.07983707	          6.21538523	         38.19776042	         28.70412096	        -16.05837583	          0.00677772	         34.31841001	
          1.03000000	          1.69440918	         -6.07387800	        -10.04227844	        -20.56399558	         -7.58903344	         -7.48268619	         -6.78621634	         14.34391904	          6.14410153	         39.40223126	         29.36776287	        -17.89849395	          0.00725497	         34.31840113	
          1.04000000	          1.67067735	         -6.09819920	        -10.06572150	        -20.53805592	         -7.55897499	         -7.27553033	         -6.83301568	         14.62840028	          6.06318862	         40.58237322	         30.02453987	        -19.67401975	          0.00806641	         34.31835970	
          1.05000000	          1.64639428	         -6.12456190	        -10.09100025	        -20.50428249	         -7.52024090	         -7.04345579	         -6.87752892	         14.93355714	          5.97289041	         41.74196087	         30.67245243	        -21.36043581	          0.00870374	         34.31833483	
          1.06000000	          1.62129258	         -6.15328968	        -10.11811211	        -20.46249460	         -7.47399180	         -6.78562171	         -6.92062458	         15.25958741	          5.87361422	         42.88313869	         31.31002107	        -22.93797088	          0.00886113	         34.31835591	
          1.07000000	          1.59511308	         -6.18457533	        -10.14707102	        -20.41281260	         -7.42162761	         -6.50189312	         -6.96326270	         15.60627910	          5.76600209	         44.00547958	         31.93657167	        -24.39275592	          0.00848747	         34.31842687	
          1.08000000	          1.56761461	         -6.21848447	        -10.17790576	        -20.35544897	         -7.36474845	         -6.19264443	         -7.00639314	         15.97276165	          5.65094645	         45.10575051	         32.55238914	        -25.71736418	          0.00774540	         34.31852933	
          1.09000000	          1.53858766	         -6.25495657	        -10.21065613	        -20.29058829	         -7.30499099	         -5.85865207	         -7.05080527	         16.35741582	          5.52952529	         46.17849277	         33.15868588	        -26.91035098	          0.00690442	         34.31863308	
          1.10000000	          1.50787274	         -6.29379581	        -10.24536593	        -20.21843546	         -7.24374149	         -5.50118447	         -7.09694395	         16.75798365	          5.40285805	         47.21732245	         33.75737540	        -27.97492345	          0.00621824	         34.31870856	
          1.11000000	          1.47538026	         -6.33465288	        -10.28207376	        -20.13944871	         -7.18180777	         -5.12230901	         -7.14474885	         17.17185846	          5.27192643	         48.21660249	         34.35069752	        -28.91729465	          0.00583525	         34.31873639	
          1.12000000	          1.44110417	         -6.37701088	        -10.32080447	        -20.05465429	         -7.11920135	         -4.72526225	         -7.19360082	         17.59645549	          5.13743805	         49.17291120	         34.94080257	        -29.74523691	          0.00576751	         34.31871168	
          1.13000000	          1.40512058	         -6.42019406	        -10.36156458	        -19.96586262	         -7.05515706	         -4.31463048	         -7.24242634	         18.02952199	          4.99979912	         50.08574146	         35.52942381	        -30.46710707	          0.00591840	         34.31864324	
          1.14000000	          1.36756842	         -6.46341102	        -10.40434302	        -19.87564669	         -6.98839767	         -3.89616173	         -7.28993337	         18.46928577	          4.85920284	         50.95720329	         36.11771810	        -31.09140166	          0.00614962	         34.31854837	
          1.15000000	          1.32861710	         -6.50582858	        -10.44911609	        -19.78706191	         -6.91752376	         -3.47620422	         -7.33488629	         18.91443850	          4.71577517	         51.79095906	         36.70626594	        -31.62673188	          0.00635688	         34.31844493	
          1.16000000	          1.28843126	         -6.54666182	        -10.49585317	        -19.70318782	         -6.84136119	         -3.06089743	         -7.37631736	         19.36403422	          4.56969128	         52.59087459	         37.29515555	        -32.08202743	          0.00652044	         34.31834449	
          1.17000000	          1.24714133	         -6.58526323	        -10.54452044	        -19.62661193	         -6.75915398	         -2.65528407	         -7.41362150	         19.81740583	          4.42120341	         53.35981045	         37.88406581	        -32.46680820	          0.00671129	         34.31824956	
          1.18000000	          1.20482435	         -6.62119730	        -10.59508070	        -19.55897600	         -6.67061392	         -2.26251704	         -7.44656145	         20.27414789	          4.27059153	         54.09876297	         38.47230953	        -32.79141910	          0.00705826	         34.31815534	
          1.19000000	          1.16149645	         -6.65428775	        -10.64748859	        -19.50069094	         -6.57592561	         -1.88335198	         -7.47525396	         20.73412369	          4.11810891	         54.80643926	         39.05886971	        -33.06709481	          0.00769668	         34.31805452	
          1.20000000	          1.11711992	         -6.68462330	        -10.70168003	        -19.45090571	         -6.47576009	         -1.51611688	         -7.50016291	         21.19741228	          3.96398281	         55.47940499	         39.64249511	        -33.30559759	          0.00871158	         34.31794273	
          1.21000000	          1.07162942	         -6.71250939	        -10.75755416	        -19.40777696	         -6.37123333	         -1.15727920	         -7.52204632	         21.66415977	          3.80846130	         56.11298724	         40.22188405	        -33.51814376	          0.01007783	         34.31782400	
          1.22000000	          1.02497847	         -6.73836699	        -10.81494767	        -19.36900739	         -6.26371824	         -0.80254821	         -7.54179749	         22.13437802	          3.65185310	         56.70287902	         40.79591857	        -33.71363313	          0.01160942	         34.31771517	
          1.23000000	          0.97719673	         -6.76260534	        -10.87360549	        -19.33249765	         -6.15452593	         -0.44819771	         -7.56020034	         22.60775826	          3.49452831	         57.24692263	         41.36388369	        -33.89671221	          0.01294744	         34.31764756	
          1.24000000	          0.92843967	         -6.78551348	        -10.93315469	        -19.29687125	         -6.04459089	         -0.09213824	         -7.57769602	         23.08353787	          3.33689271	         57.74626246	         41.92562475	        -34.06653535	          0.01361218	         34.31766329	
          1.25000000	          0.87901400	         -6.80721053	        -10.99308774	        -19.26168397	         -5.93430037	          0.26563004	         -7.59425882	         23.56043583	          3.17936274	         58.20529748	         42.48161716	        -34.21694496	          0.01311702	         34.31780555	
          1.26000000	          0.82937364	         -6.82766672	        -11.05275706	        -19.22729815	         -5.82352290	          0.62324994	         -7.60942504	         24.03668277	          3.02235489	         58.63048004	         43.03292296	        -34.33822369	          0.01111378	         34.31810456	
          1.27000000	          0.78009272	         -6.84677962	        -11.11137817	        -19.19454539	         -5.71180605	          0.97772836	         -7.62246259	         24.51017503	          2.86628725	         59.02852265	         43.58101506	        -34.41992898	          0.00751941	         34.31856464	
          1.28000000	          0.73182774	         -6.86447596	        -11.16803723	        -19.16433757	         -5.59867170	          1.32584733	         -7.63263000	         24.97873840	          2.71158961	         59.40471073	         44.12749726	        -34.45392820	          0.00257293	         34.31915846	
          1.29000000	          0.68528058	         -6.88080850	        -11.22169809	        -19.13735189	         -5.48391587	          1.66497808	         -7.63944479	         25.44042639	          2.55871815	         59.76185844	         44.67380498	        -34.43670550	         -0.00319813	         34.31983032	
          1.30000000	          0.64117208	         -6.89602373	        -11.27120545	        -19.11385917	         -5.36779966	          1.99360079	         -7.64286364	         25.89377485	          2.40815433	         60.10014660	         45.22096952	        -34.37028127	         -0.00907752	         34.32050662	
          1.31000000	          0.60023072	         -6.91058893	        -11.31528190	        -19.09370030	         -5.25102653	          2.31148628	         -7.64329529	         26.33799586	          2.26034880	         60.41775787	         45.76946579	        -34.26152756	         -0.01427941	         34.32110863	
          1.32000000	          0.56319620	         -6.92517908	        -11.35251869	        -19.07636914	         -5.13448280	          2.61962565	         -7.64143470	         26.77314151	          2.11558899	         60.71198634	         46.31911070	        -34.12006217	         -0.01805021	         34.32156287	
          1.33000000	          0.53083286	         -6.94063051	        -11.38136180	        -19.06115278	         -5.01885108	          2.92001649	         -7.63800034	         27.20024052	          1.97383094	         60.98042183	         46.86899045	        -33.95523030	         -0.01974053	         34.32180756	
          1.34000000	          0.50394718	         -6.95786772	        -11.40009567	        -19.04730030	         -4.90429362	          3.21534898	         -7.63350771	         27.62134201	          1.83458894	         61.22188660	         47.41744715	        -33.77301302	         -0.01885467	         34.32179637	
          1.35000000	          0.48340500	         -6.97780710	        -11.40682643	        -19.03421543	         -4.79035447	          3.50856551	         -7.62817255	         28.03937628	          1.69696274	         61.43697137	         47.96218262	        -33.57390651	         -0.01509133	         34.32150113	
          1.36000000	          0.47014672	         -7.00123996	        -11.39946567	        -19.02167672	         -4.67610085	          3.80225261	         -7.62195071	         28.45778137	          1.55981869	         61.62816631	         48.50051452	        -33.35269057	         -0.00837634	         34.32091355	
